# xmcd
#
# Track frame offsets:
#	150
#	13788
#	27163
#	38350
#	52103
#	64765
#	74625
#	92638
#	105108
#	116375
#	128603
#	150140
#	165003
#	178153
#	195505
#
# Disc length: 2757 seconds
#
# Revision: 0
# Processed by: cddbd v1.5.2PL0 Copyright (c) Steve Scherf et al.
# Submitted via: EasyCDDAExtractor 11.0.2.1
#
DISCID=ab0ac30f
DTITLE=Various Artist - Rythm and blues session
DYEAR=1995
DGENRE=R&B
TTITLE0=Lonnie Johnson - Tomorrow Night
TTITLE1=John Lee Hooker - Moarning blues
TTITLE2=Muddy waters - Dissatisfied
TTITLE3=Roy Brown - Hard Luck Blues
TTITLE4=Harris Wynonie - Good Rockin' Tonight
TTITLE5=Baby Washington - The Bells
TTITLE6=Big Bill Broonzy - Hush Sombody Is calling you
TTITLE7=Smokey Hogg - Overhead Blues
TTITLE8=Big Joe Williams - Jinx Blues
TTITLE9=Howlin' Wolf - Brown Skin Woman
TTITLE10=Brownie McGhee and Sonny Terrry - Blues for the lowlands
TTITLE11=Roosvelt skyes - Out on Limb
TTITLE12=Ivory John Hunter - Guess Who
TTITLE13=Sonny Terry - Rock Me Momma
TTITLE14=Lucky Millender - I'm wating just foryou
EXTD=
EXTT0=
EXTT1=
EXTT2=
EXTT3=
EXTT4=
EXTT5=
EXTT6=
EXTT7=
EXTT8=
EXTT9=
EXTT10=
EXTT11=
EXTT12=
EXTT13=
EXTT14=
PLAYORDER=
